<?xml version="1.0" encoding="utf-8"?>
<!-- Generator: Adobe Illustrator 24.2.3, SVG Export Plug-In . SVG Version: 6.00 Build 0)  -->
<svg version="1.1" id="Layer_1" xmlns="http://www.w3.org/2000/svg" xmlns:xlink="http://www.w3.org/1999/xlink" x="0px" y="0px"
	 viewBox="0 0 100 100" style="enable-background:new 0 0 100 100;" xml:space="preserve">
<style type="text/css">
	.st0{fill:#2000C3;}
</style>
<path class="st0" d="M50,0c-2.4,0-5.9,0-9.2,0.7c-3.2,0.6-6.4,1.8-8.3,4.5c-0.1,0.1-0.2,0.2-0.3,0.3c0,0,0,0-0.1,0.1
	C32.1,5.8,32,6,32,6.3c0,0,0,0,0,0.1c-0.4,0.8-7.2,15.5-9.3,21c-2.4,6.4,0.6,13.7,4,18.6c1,1.4,3.9,5.2,8.1,10.4
	c0,0,0.1,0.1,0.1,0.2C23.5,70.6,12.3,84.3,12.3,84.3c-0.7,0.8-0.6,2.1,0.3,2.8l15,12.4c0.4,0.4,1,0.5,1.5,0.5c0.5-0.1,1-0.3,1.4-0.8
	c0,0,9.7-12.1,19.4-24.3c10,12.4,19.6,24.3,19.6,24.3c0.7,0.9,2,1,2.8,0.3l15.2-12.4c0.9-0.7,1-2,0.3-2.8c0,0-10.6-12.9-21.6-26.6
	c-0.4-0.5-0.7-0.9-1.1-1.4c4-5,7.3-9.3,8.1-10.3c0,0,0.1-0.1,0.1-0.1c3.4-4.9,6.4-12.2,4-18.6c-2.1-5.6-9.1-20.7-9.3-21.2
	c0,0-0.1-0.4-0.1-0.4c0-0.1,0-0.1-0.1-0.2c0,0-0.1-0.1-0.1-0.1c0-0.1-0.1-0.1-0.1-0.2c-1.8-2.8-5.1-3.9-8.3-4.6C55.9,0,52.4,0,50,0z
	 M50,4c2.4,0,5.6,0.1,8.4,0.6c2.7,0.5,4.8,1.5,5.7,2.8c0.1,0.7,0.3,2.5-0.3,4.9c-0.3,1.5-0.8,3.7-1.7,6.4C59.3,18.3,56.3,18,50,18
	s-9.3,0.3-12.2,0.8c-0.9-2.6-1.4-4.9-1.7-6.4c-0.5-2.4-0.4-4.2-0.3-4.9c0.9-1.3,3-2.3,5.7-2.8C44.4,4.1,47.6,4,50,4z M32.6,14.7
	c0.4,1.7,1,4.1,2,6.9c0,0.2,0.1,0.3,0.2,0.4c0.8,2.1,1.9,4.4,3.5,6.9c1.2,1.8,4.5,6.1,9,11.8c0.3,0.3,0.7,0.8,0.9,1.1
	c0,0.1,0.1,0.1,0.1,0.2c0.1,0.1,0.2,0.2,0.3,0.3c3.6,4.5,7.7,9.7,11.9,14.9c0.1,0.3,0.4,0.6,0.6,0.8c0,0,0.1,0,0.1,0
	c0,0,0,0,0.1,0.1c0.6,0.8,1.1,1.5,1.8,2.3c10.4,12.9,19.2,23.6,20.3,25l-12.1,9.9c-1.1-1.4-9.3-11.4-18.9-23.3
	c-0.3-0.4-0.6-0.7-0.9-1.1c-0.1-0.2-0.2-0.4-0.4-0.5c-4.1-5.1-8.1-10.1-11.6-14.5c0,0,0,0,0-0.1c0,0,0-0.1-0.1-0.1
	c-0.1-0.4-0.4-0.7-0.8-0.9c0,0,0,0-0.1,0c-0.2-0.3-0.5-0.6-0.7-0.9c-4.1-5.2-7.3-9.2-7.9-10.1c-3-4.3-5.2-10.6-3.6-15
	C27.7,25.3,30.3,19.9,32.6,14.7z M67.4,14.7c2.4,5.2,4.9,10.6,6.1,14c1.6,4.3-0.5,10.6-3.4,14.8c0,0.1-0.1,0.1-0.1,0.2
	c-1,1.2-4.1,5.1-7.5,9.4c-3.5-4.3-6.9-8.6-9.9-12.4c2-2.6,4-5.1,5.5-7c1.8-2.3,3-3.9,3.6-4.9c1.6-2.5,2.7-4.8,3.6-7
	c0.1-0.2,0.2-0.4,0.2-0.6C66.4,18.6,67,16.4,67.4,14.7z M50,22c5.5,0,8.2,0.2,10.6,0.6c-0.6,1.3-1.4,2.7-2.3,4.1c0,0,0,0,0,0.1
	c-0.4,0.6-1.6,2.3-3.4,4.5c-1.3,1.7-3.1,4-4.9,6.3c-4.2-5.4-7.5-9.7-8.3-10.9c-0.9-1.4-1.7-2.8-2.3-4.1C41.8,22.2,44.5,22,50,22z
	 M37.5,59.7c3,3.8,6.3,7.8,9.8,12.1c-9.3,11.6-17.7,22-18.8,23.4l-11.9-9.8C17.7,84.1,27.3,72.3,37.5,59.7z"/>
</svg>
