<?xml version="1.0" encoding="utf-8"?>
<!-- Generator: Adobe Illustrator 24.2.3, SVG Export Plug-In . SVG Version: 6.00 Build 0)  -->
<svg version="1.1" id="Layer_1" xmlns="http://www.w3.org/2000/svg" xmlns:xlink="http://www.w3.org/1999/xlink" x="0px" y="0px"
	 viewBox="0 0 100 100" style="enable-background:new 0 0 100 100;" xml:space="preserve">
<style type="text/css">
	.st0{fill:#2000C3;}
</style>
<path class="st0" d="M5.9,4.3c-1.1,0-2,1-1.9,2.1c0,0.1,0,0.2,0,0.3c0,0,0.3,1.8,0.8,3.8c0.3,1,0.6,2,0.9,3s0.7,1.8,1.5,2.7
	c0,0,0,0,0,0c1,1,2.3,1.5,3.6,1.6c-0.6,1.4-0.9,2.9-0.9,4.5v0.1l0,0.1c0,0,2.2,21.2,2.2,27.9S10,78.1,10,78.1l0,0.1v0.1
	c0,1.6,0.3,3.1,0.9,4.5c-1.3,0.1-2.6,0.6-3.6,1.7c-0.8,0.8-1.2,1.7-1.5,2.7c-0.4,1-0.7,2-0.9,3c-0.5,2-0.8,3.8-0.8,3.8
	C3.8,95,4.6,96,5.7,96.2c0.2,0,0.5,0,0.7,0c0,0,1.8-0.3,3.8-0.8c1-0.3,2-0.6,3-0.9s1.8-0.7,2.7-1.5c0,0,0,0,0,0c1-1,1.5-2.3,1.6-3.6
	c1.4,0.6,2.9,0.9,4.5,0.9H22l0.1,0c0,0,21.2-2.2,27.9-2.2s27.9,2.2,27.9,2.2l0.1,0h0.1c1.6,0,3.1-0.3,4.5-0.9
	c0.1,1.3,0.6,2.6,1.6,3.6c0,0,0,0,0,0c0.8,0.8,1.7,1.2,2.7,1.5c1,0.4,2,0.7,3,0.9c2,0.5,3.8,0.8,3.8,0.8c1.1,0.2,2.1-0.5,2.3-1.6
	c0-0.2,0-0.5,0-0.7c0,0-0.3-1.8-0.8-3.8c-0.3-1-0.6-2-0.9-3c-0.4-1-0.7-1.8-1.5-2.7c0,0,0,0,0,0c-1-1-2.3-1.5-3.6-1.6
	c0.6-1.4,0.9-2.9,0.9-4.5v-0.1l0-0.1c0,0-2.2-21.2-2.2-27.9S90,22.4,90,22.4l0-0.1v-0.1c0-1.6-0.3-3.1-0.9-4.5
	c1.3-0.1,2.6-0.6,3.6-1.6c0,0,0,0,0,0c0.8-0.8,1.2-1.7,1.5-2.7s0.7-2,0.9-3c0.5-2,0.8-3.8,0.8-3.8c0.2-1.1-0.5-2.1-1.6-2.3
	c-0.1,0-0.2,0-0.3,0c-0.1,0-0.3,0-0.4,0c0,0-1.8,0.3-3.8,0.8c-1,0.3-2,0.6-3,0.9c-1,0.4-1.8,0.7-2.7,1.5c0,0,0,0,0,0
	c-1,1-1.5,2.3-1.6,3.6c-1.4-0.6-2.9-0.9-4.5-0.9H78l-0.1,0c0,0-21.2,2.2-27.9,2.2s-27.9-2.2-27.9-2.2l-0.1,0h-0.1
	c-1.6,0-3.1,0.3-4.5,0.9c-0.1-1.3-0.6-2.6-1.7-3.6C15,6.7,14.1,6.4,13.1,6s-2-0.7-3-0.9c-2-0.5-3.8-0.8-3.8-0.8
	C6.2,4.3,6.1,4.2,5.9,4.3z M8.6,8.9c0.3,0.1,0.2,0,0.5,0.1C10,9.2,11,9.5,11.7,9.8s1.3,0.7,1.2,0.6c0.7,0.7,0.7,1.9-0.1,2.8
	c-0.8,0.8-2,0.8-2.8,0.1c0.1,0.1-0.3-0.5-0.6-1.2s-0.6-1.7-0.8-2.6C8.6,9.1,8.7,9.1,8.6,8.9z M91.4,8.9c-0.1,0.3,0,0.2-0.1,0.5
	c-0.2,0.9-0.5,1.8-0.8,2.6s-0.7,1.3-0.6,1.2c-0.7,0.7-2,0.7-2.8-0.1s-0.8-2-0.1-2.8c-0.1,0.1,0.5-0.3,1.2-0.6S90,9.2,90.9,9
	C91.2,8.9,91.1,8.9,91.4,8.9z M21.9,14.3c0.3,0,20.7,2.2,28.1,2.2s27.8-2.2,28.1-2.2c4.4,0,7.9,3.5,7.9,7.9c0,0.3-2.2,20.7-2.2,28.1
	S86,78.1,86,78.3c0,4.4-3.5,7.9-7.9,7.9C77.8,86.2,57.4,84,50,84s-27.8,2.2-28.1,2.2c-4.4,0-7.9-3.5-7.9-7.9
	c0-0.3,2.2-20.7,2.2-28.1S14,22.4,14,22.2C14,17.8,17.5,14.3,21.9,14.3z M28.3,18.3c-5.7,0-10.3,4.7-10.3,10.3v0.1l0,0.1
	c0,0,0.5,4,1.1,8.8s1.1,10.2,1.1,12.6s-0.5,7.9-1.1,12.6S18,71.7,18,71.7l0,0.1v0.1c0,5.7,4.7,10.3,10.3,10.3h0.1l0.1,0
	c0,0,4-0.5,8.8-1.1s10.2-1.1,12.6-1.1s7.9,0.5,12.6,1.1s8.8,1.1,8.8,1.1l0.1,0h0.1c5.7,0,10.3-4.7,10.3-10.3v-0.1l0-0.1
	c0,0-0.5-4-1.1-8.8s-1.1-10.2-1.1-12.6s0.5-7.9,1.1-12.6s1.1-8.8,1.1-8.8l0-0.1v-0.1c0-5.7-4.7-10.3-10.3-10.3h-0.1l-0.1,0
	c0,0-4,0.5-8.8,1.1c-4.7,0.5-10.2,1.1-12.6,1.1s-7.9-0.5-12.6-1.1s-8.8-1.1-8.8-1.1l-0.1,0H28.3z M28.3,22.3c0.2,0,4,0.5,8.6,1
	c4.8,0.5,10.1,1.1,13.1,1.1s8.3-0.5,13.1-1.1c4.6-0.5,8.4-1,8.6-1c3.5,0,6.2,2.8,6.3,6.3c0,0.2-0.5,4-1,8.6
	c-0.5,4.8-1.1,10.1-1.1,13.1s0.5,8.3,1.1,13.1c0.5,4.6,1,8.4,1,8.6c0,3.5-2.8,6.2-6.3,6.3c-0.2,0-4-0.5-8.6-1
	C58.3,76.7,53,76.1,50,76.1s-8.3,0.5-13.1,1.1c-4.6,0.5-8.4,1-8.6,1c-3.5,0-6.2-2.8-6.3-6.3c0-0.2,0.5-4,1-8.6
	c0.5-4.8,1.1-10.1,1.1-13.1s-0.5-8.3-1.1-13.1c-0.5-4.6-1-8.4-1-8.6C22,25.1,24.8,22.3,28.3,22.3z M11.5,86.8c0.5,0,1,0.2,1.4,0.6
	c0.8,0.8,0.8,2,0.1,2.8c0.1-0.1-0.5,0.3-1.2,0.6s-1.7,0.6-2.6,0.8c-0.3,0.1-0.3,0-0.5,0.1c0.1-0.3,0-0.2,0.1-0.5
	c0.2-0.9,0.5-1.8,0.8-2.6s0.7-1.3,0.6-1.2C10.5,86.9,11,86.7,11.5,86.8z M88.5,86.8c0.5,0,1,0.2,1.4,0.6c-0.1-0.1,0.3,0.5,0.6,1.2
	s0.6,1.7,0.8,2.6c0.1,0.3,0,0.3,0.1,0.5c-0.3-0.1-0.2,0-0.5-0.1C90,91.3,89,91,88.3,90.7s-1.3-0.7-1.2-0.6c-0.7-0.7-0.7-2,0.1-2.8
	C87.5,87,88,86.8,88.5,86.8z"/>
</svg>
