<?xml version="1.0" encoding="utf-8"?>
<!-- Generator: Adobe Illustrator 24.2.3, SVG Export Plug-In . SVG Version: 6.00 Build 0)  -->
<svg version="1.1" id="Layer_1" xmlns="http://www.w3.org/2000/svg" xmlns:xlink="http://www.w3.org/1999/xlink" x="0px" y="0px"
	 viewBox="0 0 100 100" style="enable-background:new 0 0 100 100;" xml:space="preserve">
<style type="text/css">
	.st0{fill:#2000C3;}
</style>
<path class="st0" d="M91.4,2.1c-1.7,0-3.5,0.6-4.9,1.8c0,0,0,0-0.1,0.1L49.6,35.1c-0.3,0.1-0.5,0.2-0.7,0.4L24.1,56.1
	c-0.2,0.1-0.4,0.3-0.6,0.6L5.6,66.6l-0.2,0.1l0.1,0.1c-2.1,1-3.2,2.9-3.5,4.8c0,0.1,0,0.2,0,0.3C2,73.7,2.3,84.1,9.2,91
	c3.4,3.4,7.7,5.2,11.3,6.1c3.5,0.9,6.3,1,7.8,0.9c0,0,0,0,0.1,0c0,0,0.1,0,0.1,0v-0.1c2.2-0.1,4-1.5,4.9-3.4l0.1,0.1l0.1-0.2
	l10.1-18.3c0.1-0.1,0.1-0.2,0.2-0.3l20.8-24.6c0.3-0.3,0.4-0.7,0.5-1.1l31.3-36.6c0,0,0,0,0.1-0.1c2.2-2.7,2.2-6.8-0.3-9.4
	c0,0,0,0-0.1,0C94.7,2.9,93.1,2.2,91.4,2.1z M90.7,6.1c0.9-0.2,1.8,0.1,2.4,0.9c0,0,0,0,0.1,0.1c1,1,1.1,2.9,0.1,4.1L62.8,46.9
	l-9.6-9.6L89.1,6.9c0,0,0,0,0.1-0.1C89.6,6.5,90.1,6.2,90.7,6.1z M50.1,39.8l10.3,10.4L42.2,71.6L28.4,57.8L50.1,39.8z M25.3,60.3
	l14.5,14.5l-9.9,17.9c0,0.1-0.1,0.1-0.1,0.2c-0.3,0.7-1.1,1.2-1.6,1.2c-0.1,0-0.1,0-0.2,0c-0.6,0.1-2.9,0-5.5-0.6l1.7-2.3
	c0.5-0.7,0.6-1.6,0.1-2.3s-1.3-1.1-2.1-0.9c-0.5,0.1-1,0.4-1.3,0.8l-2.6,3.4c-2.2-0.9-4.5-2.1-6.4-4.1c-2.1-2.1-3.5-4.9-4.4-7.5
	l9.4-6c0.9-0.5,1.2-1.5,0.9-2.5c-0.4-0.9-1.3-1.4-2.3-1.2c-0.3,0.1-0.5,0.2-0.7,0.3l-8.4,5.3c-0.4-2.2-0.6-4-0.6-4.6c0,0,0,0,0-0.1
	c0.1-0.8,0.6-1.5,1.2-1.8c0.1,0,0.1-0.1,0.2-0.1L25.3,60.3z"/>
</svg>
