<?xml version="1.0" encoding="utf-8"?>
<!-- Generator: Adobe Illustrator 24.2.3, SVG Export Plug-In . SVG Version: 6.00 Build 0)  -->
<svg version="1.1" id="Layer_1" xmlns="http://www.w3.org/2000/svg" xmlns:xlink="http://www.w3.org/1999/xlink" x="0px" y="0px"
	 viewBox="0 0 100 100" style="enable-background:new 0 0 100 100;" xml:space="preserve">
<style type="text/css">
	.st0{fill:#2000C3;}
</style>
<path class="st0" d="M50,4c-0.1,0-0.2,0-0.3,0C24.4,4.2,4,24.7,4,50c0,25.3,20.4,45.8,45.6,46c0.3,0,0.5,0,0.8,0
	C75.6,95.8,96,75.3,96,50S75.6,4.2,50.4,4C50.2,4,50.1,4,50,4z M48,8.1v83.9C25.7,90.9,8,72.5,8,50S25.7,9.1,48,8.1z M52,8.1
	c0.7,0,1.3,0.1,2,0.1c0.1,1,1,1.8,2,1.8c0.8,0,1.5-0.5,1.8-1.2c5.1,1,9.9,2.8,14.2,5.5c0.1,1,1,1.7,2,1.7c0.2,0,0.4,0,0.6-0.1
	c1.3,0.9,2.5,2,3.7,3.1c-0.2,0.3-0.3,0.7-0.3,1c0,1.1,0.9,2,2,2c0.4,0,0.7-0.1,1-0.3c1.1,1.2,2.1,2.5,3,3.8c0,0.2-0.1,0.3-0.1,0.5
	c0,1,0.7,1.8,1.7,2c2.6,4.3,4.6,9,5.5,14.2c-0.8,0.3-1.3,1-1.3,1.9c0,1,0.8,1.9,1.8,2c0.1,1.3,0.2,2.7,0.2,4c0,1.4-0.1,2.7-0.2,4
	c-1,0.1-1.8,1-1.8,2c0,0.8,0.5,1.5,1.2,1.8c-1,5.1-2.9,9.9-5.5,14.2c-1,0.1-1.7,1-1.7,2c0,0.2,0,0.3,0.1,0.5c-0.9,1.3-2,2.6-3.1,3.8
	c-0.3-0.2-0.7-0.3-1-0.3c-1.1,0-2,0.9-2,2c0,0.4,0.1,0.7,0.3,1c-1.2,1.1-2.4,2.1-3.8,3.1C74.4,84,74.2,84,74,84c-1,0-1.9,0.7-2,1.8
	c-4.3,2.6-9.1,4.5-14.2,5.5c-0.3-0.8-1-1.2-1.9-1.2c-1,0-1.9,0.8-2,1.8c-0.7,0.1-1.3,0.1-2,0.2V8.1z M62,12c-1.1,0-2,0.9-2,2
	s0.9,2,2,2s2-0.9,2-2S63.1,12,62,12z M56,18c-1.1,0-2,0.9-2,2s0.9,2,2,2s2-0.9,2-2S57.1,18,56,18z M68,18c-1.1,0-2,0.9-2,2
	s0.9,2,2,2s2-0.9,2-2S69.1,18,68,18z M62,24c-1.1,0-2,0.9-2,2s0.9,2,2,2s2-0.9,2-2S63.1,24,62,24z M74,24c-1.1,0-2,0.9-2,2
	s0.9,2,2,2s2-0.9,2-2S75.1,24,74,24z M56,30c-1.1,0-2,0.9-2,2c0,1.1,0.9,2,2,2s2-0.9,2-2C58,30.9,57.1,30,56,30z M68,30
	c-1.1,0-2,0.9-2,2c0,1.1,0.9,2,2,2s2-0.9,2-2C70,30.9,69.1,30,68,30z M80,30c-1.1,0-2,0.9-2,2c0,1.1,0.9,2,2,2s2-0.9,2-2
	C82,30.9,81.1,30,80,30z M62,36c-1.1,0-2,0.9-2,2s0.9,2,2,2s2-0.9,2-2S63.1,36,62,36z M74,36c-1.1,0-2,0.9-2,2s0.9,2,2,2s2-0.9,2-2
	S75.1,36,74,36z M86,36c-1.1,0-2,0.9-2,2s0.9,2,2,2s2-0.9,2-2S87.1,36,86,36z M56,42c-1.1,0-2,0.9-2,2s0.9,2,2,2s2-0.9,2-2
	S57.1,42,56,42z M68,42c-1.1,0-2,0.9-2,2s0.9,2,2,2s2-0.9,2-2S69.1,42,68,42z M80,42c-1.1,0-2,0.9-2,2s0.9,2,2,2s2-0.9,2-2
	S81.1,42,80,42z M62,48c-1.1,0-2,0.9-2,2s0.9,2,2,2s2-0.9,2-2S63.1,48,62,48z M74,48c-1.1,0-2,0.9-2,2s0.9,2,2,2s2-0.9,2-2
	S75.1,48,74,48z M86,48c-1.1,0-2,0.9-2,2s0.9,2,2,2s2-0.9,2-2S87.1,48,86,48z M56,54c-1.1,0-2,0.9-2,2s0.9,2,2,2s2-0.9,2-2
	S57.1,54,56,54z M68,54c-1.1,0-2,0.9-2,2s0.9,2,2,2s2-0.9,2-2S69.1,54,68,54z M80,54c-1.1,0-2,0.9-2,2s0.9,2,2,2s2-0.9,2-2
	S81.1,54,80,54z M62,60c-1.1,0-2,0.9-2,2s0.9,2,2,2s2-0.9,2-2S63.1,60,62,60z M74,60c-1.1,0-2,0.9-2,2s0.9,2,2,2s2-0.9,2-2
	S75.1,60,74,60z M86,60c-1.1,0-2,0.9-2,2s0.9,2,2,2s2-0.9,2-2S87.1,60,86,60z M56,66c-1.1,0-2,0.9-2,2s0.9,2,2,2s2-0.9,2-2
	S57.1,66,56,66z M68,66c-1.1,0-2,0.9-2,2s0.9,2,2,2s2-0.9,2-2S69.1,66,68,66z M80,66c-1.1,0-2,0.9-2,2s0.9,2,2,2s2-0.9,2-2
	S81.1,66,80,66z M62,72c-1.1,0-2,0.9-2,2s0.9,2,2,2s2-0.9,2-2S63.1,72,62,72z M74,72c-1.1,0-2,0.9-2,2s0.9,2,2,2s2-0.9,2-2
	S75.1,72,74,72z M56,78c-1.1,0-2,0.9-2,2s0.9,2,2,2s2-0.9,2-2S57.1,78,56,78z M68,78c-1.1,0-2,0.9-2,2s0.9,2,2,2s2-0.9,2-2
	S69.1,78,68,78z M62,84c-1.1,0-2,0.9-2,2s0.9,2,2,2s2-0.9,2-2S63.1,84,62,84z"/>
</svg>
