<?xml version="1.0" encoding="utf-8"?>
<!-- Generator: Adobe Illustrator 24.2.3, SVG Export Plug-In . SVG Version: 6.00 Build 0)  -->
<svg version="1.1" id="Layer_1" xmlns="http://www.w3.org/2000/svg" xmlns:xlink="http://www.w3.org/1999/xlink" x="0px" y="0px"
	 viewBox="0 0 100 100" style="enable-background:new 0 0 100 100;" xml:space="preserve">
<style type="text/css">
	.st0{fill:#2000C3;}
</style>
<path class="st0" d="M31.1,6c-3.9,0.3-7.4,3-8.6,6.9l-16,49.5C4.8,67.7,7.7,73.3,12.9,75h0l7.1,2.4V84c0,5.5,4.5,10,10,10h54
	c5.5,0,10-4.5,10-10V32c0-5-3.7-9.1-8.5-9.9L35,6.5C33.7,6.1,32.4,5.9,31.1,6z M31.4,10c0.8-0.1,1.6,0,2.4,0.3c0,0,0,0,0,0L71.6,22
	H30c-2.9,0-5.5,1.3-7.3,3.3l3.6-11.1C27,11.8,29.1,10.2,31.4,10z M30,26h54c0.3,0,0.5,0,0.7,0.1l0.6,0.2c0.2,0.1,0.4,0.1,0.6,0.1
	c2.4,0.8,4,3,4,5.7v52c0,3.3-2.7,6-6,6H30c-3.3,0-6-2.7-6-6V32C24,28.7,26.7,26,30,26z M82,30c-2.2,0-4,1.8-4,4c0,2.2,1.8,4,4,4
	s4-1.8,4-4C86,31.8,84.2,30,82,30z M20,33.5v39.7l-5.8-2c0,0,0,0,0,0c-3.2-1-4.9-4.4-3.9-7.5L20,33.5z M30,34c0,0,5.1,7,7.4,9.9
	c-2.3,2.9-7.4,9.9-7.4,9.9s7-5.1,9.9-7.4c2.9,2.2,9.9,7.4,9.9,7.4s-5.1-7-7.4-9.9c2.2-2.9,7.4-9.9,7.4-9.9s-7,5.1-9.9,7.4
	C37,39.1,30,34,30,34z M42,58c0,0,2.2,3.9,3.6,6.1C44.2,66.2,42,70,42,70s3.8-2.1,6-3.5c2.2,1.4,6,3.5,6,3.5s-2.2-3.8-3.6-5.9
	C51.8,61.9,54,58,54,58s-3.8,2.3-6,3.7C45.8,60.3,42,58,42,58z"/>
</svg>
