<?xml version="1.0" encoding="utf-8"?>
<!-- Generator: Adobe Illustrator 24.2.3, SVG Export Plug-In . SVG Version: 6.00 Build 0)  -->
<svg version="1.1" id="Layer_1" xmlns="http://www.w3.org/2000/svg" xmlns:xlink="http://www.w3.org/1999/xlink" x="0px" y="0px"
	 viewBox="0 0 100 100" style="enable-background:new 0 0 100 100;" xml:space="preserve">
<style type="text/css">
	.st0{fill:#2000C3;}
</style>
<path class="st0" d="M28,4c-5.5,0-10,4.5-10,10v47.7c0,0.2,0,0.4,0,0.7V74c0,7.7,6.3,14,14,14v6c0,1.1,0.9,2,2,2h8c1.1,0,2-0.9,2-2
	v-6h12v6c0,1.1,0.9,2,2,2h8c1.1,0,2-0.9,2-2v-6c7.7,0,14-6.3,14-14V62.3c0-0.2,0-0.4,0-0.7V14c0-5.5-4.5-10-10-10H28z M28,8h44
	c3.3,0,6,2.7,6,6v46H22V14C22,10.7,24.7,8,28,8z M32,16c-1.1,0-2,0.9-2,2v32c0,1.1,0.9,2,2,2h36c1.1,0,2-0.9,2-2V18c0-1.1-0.9-2-2-2
	H32z M34,20h32v28H34V20z M52.7,24c0,0-10.7,4.9-10.7,13.3c0,5.2,6.4,6.7,6.4,6.7s-2.1-2.8-2.1-6.7c0-4.8,4.3-7.6,4.3-7.6
	c-1.4,5.7,1.1,7.6,1.1,7.6s-0.2-1.7,0.8-2.8c0.7,2.5,2.5,3.6,2.5,5.9c0,1.6-1.9,3.7-1.9,3.7c2.9-1,5-3.8,4.9-6.7
	c0-5.1-2.5-6.3-2.1-9.2c-0.8,0.2-1.5,1-2.1,1.4C52.7,28.1,52.4,26.2,52.7,24z M22,64h56v10c0,5.5-4.5,10-10,10h-2h-8H42h-8h-2
	c-5.5,0-10-4.5-10-10V64z M35,66c-3.8,0-7,3.2-7,7s3.2,7,7,7s7-3.2,7-7S38.8,66,35,66z M65,66c-3.8,0-7,3.2-7,7s3.2,7,7,7s7-3.2,7-7
	S68.8,66,65,66z M35,70c1.7,0,3,1.3,3,3s-1.3,3-3,3s-3-1.3-3-3S33.3,70,35,70z M65,70c1.7,0,3,1.3,3,3s-1.3,3-3,3c-1.7,0-3-1.3-3-3
	S63.3,70,65,70z M36,88h4v4h-4V88z M60,88h4v4h-4V88z"/>
</svg>
