<?xml version="1.0" encoding="utf-8"?>
<!-- Generator: Adobe Illustrator 24.2.3, SVG Export Plug-In . SVG Version: 6.00 Build 0)  -->
<svg version="1.1" id="Layer_1" xmlns="http://www.w3.org/2000/svg" xmlns:xlink="http://www.w3.org/1999/xlink" x="0px" y="0px"
	 viewBox="0 0 100 100" style="enable-background:new 0 0 100 100;" xml:space="preserve">
<style type="text/css">
	.st0{fill:#2000C3;}
</style>
<path class="st0" d="M58,10c-0.1,0-0.2,0-0.3,0H10c-4.4,0-8,3.6-8,8v64c0,4.4,3.6,8,8,8h2v2h10v-2h35.7c0.2,0,0.4,0,0.7,0H78v2h10
	v-2h2c4.4,0,8-3.6,8-8V18c0-4.4-3.6-8-8-8H58.3C58.2,10,58.1,10,58,10z M10,14h46v6H14c-1.1,0-2,0.9-2,2v56c0,1.1,0.9,2,2,2h42v6H22
	H12h-2c-2.2,0-4-1.8-4-4V18C6,15.8,7.8,14,10,14z M60,14h6v72h-6V58v-8v-8V14z M60,42c0,1.1,0.9,2,2,2s2-0.9,2-2s-0.9-2-2-2
	S60,40.9,60,42z M60,50c0,1.1,0.9,2,2,2s2-0.9,2-2s-0.9-2-2-2S60,48.9,60,50z M60,58c0,1.1,0.9,2,2,2s2-0.9,2-2s-0.9-2-2-2
	S60,56.9,60,58z M75.7,14H90c2.2,0,4,1.8,4,4v64c0,2.2-1.8,4-4,4h-2H78h-2.3L87,79.8c0.6-0.4,1-1,1-1.8V62.9
	c0.7-1.6,1.4-3.1,1.5-3.4c0.4-0.3,0.8-0.7,1-1.1c0.4-0.7,0.6-1.4,0.9-2.3c0.4-1.7,0.6-3.8,0.6-6.1s-0.2-4.5-0.6-6.1
	c-0.2-0.8-0.5-1.6-0.9-2.3c-0.2-0.4-0.5-0.8-0.9-1.1c-0.3-0.6-0.8-1.9-1.6-3.7V22c0-0.7-0.4-1.4-1-1.8L75.7,14z M70,15.4l14,7.8v5.9
	c-0.1-0.2-0.2-0.3-0.4-0.5C83.3,28.4,82.9,28,82,28c-1,0-1.7,0.5-2.2,1c-0.5,0.5-0.8,1.1-1.1,1.7c-0.6,1.3-1,2.8-1.4,4.8
	C76.4,39.3,76,44.4,76,50s0.4,10.7,1.2,14.5c0.4,1.9,0.8,3.5,1.4,4.8c0.3,0.6,0.6,1.2,1.1,1.7s1.3,1,2.2,1c1.1,0,1.4-0.5,1.6-0.7
	c0.2-0.2,0.3-0.3,0.4-0.4v6l-14,7.8V15.4z M16,24h40v52H16V24z M82,33.4c0.5,1,1.1,2.2,1.7,3.4c0.9,1.9,1.5,3.5,2,4.6
	c0,0.1-0.1,0.1-0.1,0.2c-0.4,0.7-0.6,1.4-0.9,2.3C84.2,45.5,84,47.7,84,50s0.2,4.5,0.6,6.1c0.2,0.8,0.5,1.6,0.9,2.3
	c0,0,0.1,0.1,0.1,0.1c-0.4,0.9-1,2.3-2.1,4.6c-0.6,1.2-1.1,2.3-1.6,3.3c-0.3-0.8-0.5-1.5-0.8-2.7C80.4,60.3,80,55.4,80,50
	s0.4-10.3,1.1-13.8C81.4,35,81.7,34.2,82,33.4z"/>
</svg>
