<?xml version="1.0" encoding="UTF-8"?>
<svg xmlns="http://www.w3.org/2000/svg" xmlns:xlink="http://www.w3.org/1999/xlink" viewBox="0 0 50 50" width="50px" height="50px">
<g id="surface9711993">
<path style=" stroke:none;fill-rule:nonzero;fill:rgb(5.098039%,5.098039%,5.098039%);fill-opacity:1;" d="M 28.984375 4.988281 C 28.9375 4.988281 28.886719 4.992188 28.839844 5 L 5 5 C 2.800781 5 1 6.800781 1 9 L 1 41 C 1 43.199219 2.800781 45 5 45 L 6 45 L 6 46 L 11 46 L 11 45 L 28.832031 45 C 28.941406 45.019531 29.050781 45.019531 29.160156 45 L 39 45 L 39 46 L 44 46 L 44 45 L 45 45 C 47.199219 45 49 43.199219 49 41 L 49 9 C 49 6.800781 47.199219 5 45 5 L 29.152344 5 C 29.097656 4.992188 29.042969 4.984375 28.984375 4.988281 Z M 5 7 L 28 7 L 28 10 L 7 10 C 6.449219 10 6 10.449219 6 11 L 6 39 C 6 39.550781 6.449219 40 7 40 L 28 40 L 28 43 L 5 43 C 3.882812 43 3 42.117188 3 41 L 3 9 C 3 7.882812 3.882812 7 5 7 Z M 30 7 L 33 7 L 33 43 L 30 43 Z M 30 21 C 30 21.550781 30.449219 22 31 22 C 31.550781 22 32 21.550781 32 21 C 32 20.449219 31.550781 20 31 20 C 30.449219 20 30 20.449219 30 21 Z M 30 25 C 30 25.550781 30.449219 26 31 26 C 31.550781 26 32 25.550781 32 25 C 32 24.449219 31.550781 24 31 24 C 30.449219 24 30 24.449219 30 25 Z M 30 29 C 30 29.550781 30.449219 30 31 30 C 31.550781 30 32 29.550781 32 29 C 32 28.449219 31.550781 28 31 28 C 30.449219 28 30 28.449219 30 29 Z M 37.863281 7 L 45 7 C 46.117188 7 47 7.882812 47 9 L 47 41 C 47 42.117188 46.117188 43 45 43 L 37.863281 43 L 43.488281 39.875 C 43.804688 39.699219 44 39.363281 44 39 L 44 31.472656 C 44.34375 30.695312 44.683594 29.941406 44.761719 29.75 C 44.984375 29.585938 45.144531 29.375 45.25 29.195312 C 45.449219 28.855469 45.574219 28.492188 45.675781 28.070312 C 45.886719 27.230469 46 26.171875 46 25 C 46 23.828125 45.886719 22.769531 45.675781 21.929688 C 45.574219 21.507812 45.449219 21.144531 45.25 20.804688 C 45.144531 20.628906 44.992188 20.421875 44.777344 20.261719 C 44.644531 19.9375 44.382812 19.3125 44 18.433594 L 44 11 C 44 10.636719 43.804688 10.300781 43.488281 10.125 Z M 35 7.699219 L 42 11.585938 L 42 14.542969 C 41.9375 14.46875 41.882812 14.394531 41.789062 14.3125 C 41.652344 14.191406 41.453125 14 41 14 C 40.523438 14 40.128906 14.25 39.878906 14.503906 C 39.632812 14.757812 39.464844 15.039062 39.316406 15.359375 C 39.015625 15.992188 38.796875 16.78125 38.605469 17.734375 C 38.222656 19.636719 38 22.183594 38 25 C 38 27.816406 38.222656 30.363281 38.605469 32.269531 C 38.796875 33.21875 39.015625 34.007812 39.316406 34.644531 C 39.464844 34.960938 39.632812 35.242188 39.878906 35.496094 C 40.128906 35.75 40.523438 36 41 36 C 41.566406 36 41.699219 35.757812 41.816406 35.640625 C 41.898438 35.5625 41.945312 35.488281 42 35.417969 L 42 38.414062 L 35 42.300781 Z M 8 12 L 28 12 L 28 38 L 8 38 Z M 40.980469 16.699219 C 41.242188 17.195312 41.527344 17.777344 41.8125 18.410156 C 42.246094 19.371094 42.578125 20.164062 42.808594 20.722656 C 42.789062 20.75 42.765625 20.777344 42.75 20.804688 C 42.550781 21.144531 42.425781 21.507812 42.324219 21.929688 C 42.113281 22.769531 42 23.828125 42 25 C 42 26.171875 42.113281 27.230469 42.324219 28.070312 C 42.425781 28.492188 42.550781 28.855469 42.75 29.195312 C 42.761719 29.214844 42.78125 29.238281 42.792969 29.257812 C 42.601562 29.710938 42.300781 30.421875 41.765625 31.582031 C 41.484375 32.1875 41.210938 32.734375 40.960938 33.222656 C 40.828125 32.839844 40.6875 32.480469 40.566406 31.875 C 40.222656 30.160156 40 27.707031 40 25 C 40 22.292969 40.222656 19.839844 40.566406 18.125 C 40.695312 17.488281 40.839844 17.089844 40.984375 16.699219 Z M 40.980469 16.699219 "/>
</g>
</svg>
