<?xml version="1.0" encoding="UTF-8"?>
<svg xmlns="http://www.w3.org/2000/svg" xmlns:xlink="http://www.w3.org/1999/xlink" viewBox="0 0 50 50" width="50px" height="50px">
<g id="surface9711764">
<path style=" stroke:none;fill-rule:nonzero;fill:rgb(5.098039%,5.098039%,5.098039%);fill-opacity:1;" d="M 2.972656 2.125 C 2.679688 2.132812 2.410156 2.265625 2.226562 2.492188 C 2.042969 2.714844 1.964844 3.007812 2.015625 3.296875 C 2.015625 3.296875 2.167969 4.179688 2.421875 5.175781 C 2.546875 5.671875 2.699219 6.199219 2.882812 6.683594 C 3.066406 7.167969 3.234375 7.601562 3.644531 8.011719 C 4.144531 8.511719 4.785156 8.777344 5.445312 8.835938 C 5.160156 9.53125 5 10.292969 5 11.09375 L 5 11.144531 L 5.007812 11.199219 C 5.007812 11.199219 6.117188 21.816406 6.117188 25.125 C 6.117188 28.433594 5.007812 39.054688 5.007812 39.054688 L 5 39.105469 L 5 39.160156 C 5 39.957031 5.160156 40.71875 5.445312 41.414062 C 4.785156 41.472656 4.144531 41.738281 3.644531 42.238281 C 3.234375 42.648438 3.066406 43.082031 2.882812 43.566406 C 2.699219 44.050781 2.546875 44.578125 2.421875 45.074219 C 2.167969 46.070312 2.015625 46.953125 2.015625 46.953125 C 1.957031 47.277344 2.0625 47.601562 2.292969 47.832031 C 2.523438 48.0625 2.847656 48.167969 3.171875 48.109375 C 3.171875 48.109375 4.054688 47.957031 5.050781 47.703125 C 5.546875 47.578125 6.074219 47.425781 6.558594 47.242188 C 7.042969 47.058594 7.476562 46.890625 7.886719 46.480469 C 8.386719 45.980469 8.652344 45.339844 8.710938 44.675781 C 9.40625 44.964844 10.167969 45.125 10.96875 45.125 L 11.019531 45.125 L 11.074219 45.117188 C 11.074219 45.117188 21.691406 44.007812 25 44.007812 C 28.308594 44.007812 38.929688 45.117188 38.929688 45.117188 L 38.980469 45.125 L 39.035156 45.125 C 39.832031 45.125 40.59375 44.964844 41.289062 44.675781 C 41.347656 45.339844 41.613281 45.980469 42.113281 46.480469 C 42.523438 46.890625 42.957031 47.058594 43.441406 47.242188 C 43.925781 47.425781 44.453125 47.578125 44.949219 47.703125 C 45.945312 47.957031 46.828125 48.109375 46.828125 48.109375 C 47.152344 48.167969 47.476562 48.0625 47.707031 47.832031 C 47.9375 47.601562 48.042969 47.277344 47.984375 46.953125 C 47.984375 46.953125 47.832031 46.070312 47.578125 45.074219 C 47.453125 44.578125 47.300781 44.050781 47.117188 43.566406 C 46.933594 43.082031 46.765625 42.648438 46.355469 42.238281 C 45.855469 41.738281 45.214844 41.472656 44.550781 41.414062 C 44.839844 40.71875 45 39.957031 45 39.160156 L 45 39.105469 L 44.992188 39.054688 C 44.992188 39.054688 43.882812 28.433594 43.882812 25.125 C 43.882812 21.816406 44.992188 11.199219 44.992188 11.199219 L 45 11.144531 L 45 11.09375 C 45 10.292969 44.839844 9.53125 44.550781 8.835938 C 45.214844 8.777344 45.855469 8.511719 46.355469 8.011719 C 46.765625 7.601562 46.933594 7.167969 47.117188 6.683594 C 47.300781 6.199219 47.453125 5.671875 47.578125 5.175781 C 47.832031 4.179688 47.984375 3.296875 47.984375 3.296875 C 48.035156 3.011719 47.960938 2.71875 47.777344 2.496094 C 47.597656 2.273438 47.328125 2.136719 47.039062 2.125 C 46.96875 2.121094 46.898438 2.125 46.828125 2.140625 C 46.828125 2.140625 45.945312 2.292969 44.949219 2.546875 C 44.453125 2.671875 43.925781 2.824219 43.441406 3.007812 C 42.957031 3.191406 42.523438 3.359375 42.113281 3.769531 C 41.613281 4.269531 41.347656 4.910156 41.289062 5.570312 C 40.59375 5.285156 39.832031 5.125 39.03125 5.125 L 38.980469 5.125 L 38.925781 5.132812 C 38.925781 5.132812 28.308594 6.242188 25 6.242188 C 21.691406 6.242188 11.074219 5.132812 11.074219 5.132812 L 11.019531 5.125 L 10.96875 5.125 C 10.167969 5.125 9.40625 5.285156 8.710938 5.570312 C 8.652344 4.910156 8.386719 4.269531 7.886719 3.769531 C 7.476562 3.359375 7.042969 3.191406 6.558594 3.007812 C 6.074219 2.824219 5.546875 2.671875 5.050781 2.546875 C 4.054688 2.292969 3.167969 2.140625 3.167969 2.140625 C 3.105469 2.128906 3.039062 2.121094 2.972656 2.125 Z M 4.304688 4.429688 C 4.429688 4.457031 4.421875 4.449219 4.558594 4.480469 C 5.007812 4.597656 5.476562 4.734375 5.851562 4.878906 C 6.222656 5.019531 6.5 5.207031 6.472656 5.183594 C 6.84375 5.554688 6.847656 6.15625 6.441406 6.566406 C 6.03125 6.972656 5.429688 6.96875 5.058594 6.597656 C 5.082031 6.625 4.894531 6.347656 4.753906 5.976562 C 4.609375 5.601562 4.472656 5.132812 4.355469 4.683594 C 4.324219 4.546875 4.332031 4.554688 4.304688 4.429688 Z M 45.699219 4.429688 C 45.667969 4.554688 45.675781 4.546875 45.644531 4.683594 C 45.527344 5.132812 45.390625 5.601562 45.246094 5.976562 C 45.105469 6.347656 44.917969 6.625 44.941406 6.597656 C 44.570312 6.96875 43.96875 6.972656 43.558594 6.566406 C 43.152344 6.15625 43.15625 5.554688 43.527344 5.179688 C 43.5 5.207031 43.777344 5.019531 44.148438 4.875 C 44.523438 4.734375 44.992188 4.597656 45.441406 4.480469 C 45.578125 4.449219 45.570312 4.457031 45.695312 4.425781 Z M 10.957031 7.128906 C 11.097656 7.140625 21.292969 8.242188 25 8.242188 C 28.707031 8.242188 38.902344 7.140625 39.042969 7.128906 C 41.238281 7.132812 42.992188 8.886719 42.996094 11.082031 C 42.984375 11.222656 41.882812 21.417969 41.882812 25.125 C 41.882812 28.832031 42.984375 39.027344 42.996094 39.167969 C 42.992188 41.363281 41.238281 43.117188 39.042969 43.121094 C 38.902344 43.109375 28.707031 42.007812 25 42.007812 C 21.292969 42.007812 11.097656 43.109375 10.957031 43.121094 C 8.761719 43.117188 7.007812 41.363281 7.003906 39.167969 C 7.015625 39.027344 8.117188 28.832031 8.117188 25.125 C 8.117188 21.417969 7.015625 11.222656 7.003906 11.082031 C 7.007812 8.886719 8.761719 7.132812 10.957031 7.128906 Z M 14.167969 9.125 C 11.324219 9.125 9 11.453125 9 14.292969 L 9 14.355469 L 9.007812 14.425781 C 9.007812 14.425781 9.273438 16.441406 9.542969 18.800781 C 9.808594 21.160156 10.070312 23.894531 10.070312 25.125 C 10.070312 26.355469 9.808594 29.089844 9.542969 31.449219 C 9.273438 33.808594 9.007812 35.824219 9.007812 35.824219 L 9 35.894531 L 9 35.957031 C 9 38.800781 11.328125 41.125 14.167969 41.125 L 14.230469 41.125 L 14.300781 41.117188 C 14.300781 41.117188 16.316406 40.851562 18.675781 40.585938 C 21.035156 40.316406 23.769531 40.054688 25 40.054688 C 26.230469 40.054688 28.964844 40.316406 31.324219 40.585938 C 33.683594 40.851562 35.699219 41.117188 35.699219 41.117188 L 35.769531 41.125 L 35.832031 41.125 C 38.675781 41.125 41 38.796875 41 35.957031 L 41 35.894531 L 40.992188 35.824219 C 40.992188 35.824219 40.726562 33.808594 40.460938 31.449219 C 40.191406 29.089844 39.929688 26.355469 39.929688 25.125 C 39.929688 23.894531 40.191406 21.160156 40.460938 18.800781 C 40.726562 16.441406 40.992188 14.425781 40.992188 14.425781 L 41 14.355469 L 41 14.292969 C 41 11.449219 38.671875 9.125 35.832031 9.125 L 35.769531 9.125 L 35.699219 9.132812 C 35.699219 9.132812 33.683594 9.398438 31.324219 9.667969 C 28.964844 9.933594 26.230469 10.195312 25 10.195312 C 23.769531 10.195312 21.035156 9.933594 18.675781 9.667969 C 16.316406 9.398438 14.300781 9.132812 14.300781 9.132812 L 14.230469 9.125 Z M 14.144531 11.128906 C 14.238281 11.144531 16.128906 11.390625 18.449219 11.652344 C 20.828125 11.921875 23.507812 12.195312 25 12.195312 C 26.492188 12.195312 29.171875 11.921875 31.550781 11.652344 C 33.871094 11.390625 35.761719 11.144531 35.855469 11.128906 C 37.597656 11.144531 38.980469 12.527344 38.992188 14.265625 C 38.980469 14.363281 38.734375 16.253906 38.46875 18.574219 C 38.203125 20.953125 37.929688 23.632812 37.929688 25.125 C 37.929688 26.617188 38.203125 29.296875 38.46875 31.671875 C 38.734375 33.996094 38.980469 35.886719 38.992188 35.980469 C 38.980469 37.722656 37.597656 39.105469 35.855469 39.117188 C 35.761719 39.105469 33.871094 38.859375 31.550781 38.59375 C 29.171875 38.328125 26.492188 38.054688 25 38.054688 C 23.507812 38.054688 20.828125 38.328125 18.449219 38.59375 C 16.128906 38.859375 14.238281 39.105469 14.144531 39.117188 C 12.402344 39.105469 11.019531 37.722656 11.007812 35.980469 C 11.019531 35.886719 11.265625 33.996094 11.53125 31.671875 C 11.796875 29.296875 12.070312 26.617188 12.070312 25.125 C 12.070312 23.632812 11.796875 20.953125 11.53125 18.574219 C 11.265625 16.253906 11.019531 14.363281 11.007812 14.265625 C 11.019531 12.527344 12.402344 11.144531 14.144531 11.128906 Z M 5.734375 43.378906 C 5.980469 43.378906 6.234375 43.480469 6.441406 43.683594 C 6.847656 44.09375 6.84375 44.695312 6.472656 45.066406 C 6.5 45.042969 6.222656 45.230469 5.851562 45.371094 C 5.476562 45.515625 5.007812 45.652344 4.558594 45.769531 C 4.421875 45.800781 4.429688 45.792969 4.304688 45.824219 C 4.332031 45.695312 4.324219 45.703125 4.355469 45.570312 C 4.472656 45.117188 4.609375 44.648438 4.753906 44.277344 C 4.894531 43.902344 5.082031 43.625 5.058594 43.652344 C 5.242188 43.464844 5.488281 43.375 5.734375 43.378906 Z M 44.265625 43.378906 C 44.515625 43.375 44.757812 43.464844 44.941406 43.652344 C 44.917969 43.625 45.105469 43.902344 45.246094 44.277344 C 45.390625 44.648438 45.527344 45.117188 45.644531 45.570312 C 45.675781 45.703125 45.667969 45.695312 45.699219 45.824219 C 45.570312 45.792969 45.578125 45.800781 45.445312 45.769531 C 44.992188 45.652344 44.523438 45.515625 44.152344 45.371094 C 43.777344 45.230469 43.5 45.042969 43.527344 45.066406 C 43.15625 44.695312 43.152344 44.09375 43.5625 43.683594 C 43.765625 43.480469 44.015625 43.378906 44.265625 43.378906 Z M 44.265625 43.378906 "/>
</g>
</svg>
