<?xml version="1.0" encoding="UTF-8"?>
<svg xmlns="http://www.w3.org/2000/svg" xmlns:xlink="http://www.w3.org/1999/xlink" viewBox="0 0 50 50" width="50px" height="50px">
<g id="surface9711112">
<path style=" stroke:none;fill-rule:nonzero;fill:rgb(5.098039%,5.098039%,5.098039%);fill-opacity:1;" d="M 24.984375 1.988281 C 24.925781 1.988281 24.871094 1.992188 24.816406 2.003906 C 12.210938 2.105469 2 12.371094 2 25 C 2 37.625 12.203125 47.890625 24.804688 47.996094 C 24.929688 48.019531 25.058594 48.019531 25.183594 47.996094 C 37.789062 47.898438 48 37.628906 48 25 C 48 12.371094 37.789062 2.101562 25.183594 2.003906 C 25.117188 1.992188 25.050781 1.984375 24.984375 1.988281 Z M 24 4.023438 L 24 45.972656 C 12.855469 45.453125 4 36.273438 4 25 C 4 13.726562 12.855469 4.546875 24 4.023438 Z M 26 4.023438 C 26.335938 4.042969 26.671875 4.066406 27.003906 4.097656 C 27.054688 4.609375 27.484375 5 28 5 C 28.402344 5 28.761719 4.761719 28.917969 4.390625 C 31.480469 4.875 33.871094 5.8125 36.007812 7.128906 C 36.074219 7.628906 36.5 8 37 8 C 37.09375 8 37.1875 7.984375 37.277344 7.957031 C 37.929688 8.429688 38.546875 8.949219 39.140625 9.488281 C 39.050781 9.644531 39 9.820312 39 10 C 39 10.550781 39.449219 11 40 11 C 40.179688 11 40.355469 10.949219 40.507812 10.859375 C 41.054688 11.457031 41.558594 12.089844 42.03125 12.746094 C 42.011719 12.828125 42 12.914062 42 13 C 42 13.5 42.371094 13.925781 42.867188 13.988281 C 44.1875 16.128906 45.148438 18.511719 45.628906 21.070312 C 45.25 21.222656 45 21.589844 45 22 C 45 22.515625 45.390625 22.945312 45.902344 22.992188 C 45.964844 23.65625 46 24.324219 46 25 C 46 25.679688 45.953125 26.347656 45.890625 27.007812 C 45.382812 27.0625 45 27.492188 45 28 C 45 28.40625 45.242188 28.769531 45.617188 28.921875 C 45.128906 31.480469 44.183594 33.871094 42.863281 36.007812 C 42.367188 36.078125 42 36.5 42 37 C 42 37.085938 42.011719 37.171875 42.035156 37.257812 C 41.5625 37.914062 41.050781 38.542969 40.507812 39.136719 C 40.351562 39.046875 40.179688 39 40 39 C 39.449219 39 39 39.449219 39 40 C 39 40.175781 39.046875 40.351562 39.140625 40.503906 C 38.542969 41.046875 37.917969 41.5625 37.261719 42.035156 C 37.175781 42.011719 37.089844 42 37 42 C 36.496094 42 36.070312 42.375 36.007812 42.875 C 33.871094 44.195312 31.480469 45.140625 28.925781 45.621094 C 28.773438 45.246094 28.40625 45 28 45 C 27.488281 45 27.058594 45.386719 27.003906 45.898438 C 26.671875 45.929688 26.339844 45.957031 26 45.972656 Z M 31 6 C 30.449219 6 30 6.449219 30 7 C 30 7.550781 30.449219 8 31 8 C 31.550781 8 32 7.550781 32 7 C 32 6.449219 31.550781 6 31 6 Z M 28 9 C 27.449219 9 27 9.449219 27 10 C 27 10.550781 27.449219 11 28 11 C 28.550781 11 29 10.550781 29 10 C 29 9.449219 28.550781 9 28 9 Z M 34 9 C 33.449219 9 33 9.449219 33 10 C 33 10.550781 33.449219 11 34 11 C 34.550781 11 35 10.550781 35 10 C 35 9.449219 34.550781 9 34 9 Z M 31 12 C 30.449219 12 30 12.449219 30 13 C 30 13.550781 30.449219 14 31 14 C 31.550781 14 32 13.550781 32 13 C 32 12.449219 31.550781 12 31 12 Z M 37 12 C 36.449219 12 36 12.449219 36 13 C 36 13.550781 36.449219 14 37 14 C 37.550781 14 38 13.550781 38 13 C 38 12.449219 37.550781 12 37 12 Z M 28 15 C 27.449219 15 27 15.449219 27 16 C 27 16.550781 27.449219 17 28 17 C 28.550781 17 29 16.550781 29 16 C 29 15.449219 28.550781 15 28 15 Z M 34 15 C 33.449219 15 33 15.449219 33 16 C 33 16.550781 33.449219 17 34 17 C 34.550781 17 35 16.550781 35 16 C 35 15.449219 34.550781 15 34 15 Z M 40 15 C 39.449219 15 39 15.449219 39 16 C 39 16.550781 39.449219 17 40 17 C 40.550781 17 41 16.550781 41 16 C 41 15.449219 40.550781 15 40 15 Z M 31 18 C 30.449219 18 30 18.449219 30 19 C 30 19.550781 30.449219 20 31 20 C 31.550781 20 32 19.550781 32 19 C 32 18.449219 31.550781 18 31 18 Z M 37 18 C 36.449219 18 36 18.449219 36 19 C 36 19.550781 36.449219 20 37 20 C 37.550781 20 38 19.550781 38 19 C 38 18.449219 37.550781 18 37 18 Z M 43 18 C 42.449219 18 42 18.449219 42 19 C 42 19.550781 42.449219 20 43 20 C 43.550781 20 44 19.550781 44 19 C 44 18.449219 43.550781 18 43 18 Z M 28 21 C 27.449219 21 27 21.449219 27 22 C 27 22.550781 27.449219 23 28 23 C 28.550781 23 29 22.550781 29 22 C 29 21.449219 28.550781 21 28 21 Z M 34 21 C 33.449219 21 33 21.449219 33 22 C 33 22.550781 33.449219 23 34 23 C 34.550781 23 35 22.550781 35 22 C 35 21.449219 34.550781 21 34 21 Z M 40 21 C 39.449219 21 39 21.449219 39 22 C 39 22.550781 39.449219 23 40 23 C 40.550781 23 41 22.550781 41 22 C 41 21.449219 40.550781 21 40 21 Z M 31 24 C 30.449219 24 30 24.449219 30 25 C 30 25.550781 30.449219 26 31 26 C 31.550781 26 32 25.550781 32 25 C 32 24.449219 31.550781 24 31 24 Z M 37 24 C 36.449219 24 36 24.449219 36 25 C 36 25.550781 36.449219 26 37 26 C 37.550781 26 38 25.550781 38 25 C 38 24.449219 37.550781 24 37 24 Z M 43 24 C 42.449219 24 42 24.449219 42 25 C 42 25.550781 42.449219 26 43 26 C 43.550781 26 44 25.550781 44 25 C 44 24.449219 43.550781 24 43 24 Z M 28 27 C 27.449219 27 27 27.449219 27 28 C 27 28.550781 27.449219 29 28 29 C 28.550781 29 29 28.550781 29 28 C 29 27.449219 28.550781 27 28 27 Z M 34 27 C 33.449219 27 33 27.449219 33 28 C 33 28.550781 33.449219 29 34 29 C 34.550781 29 35 28.550781 35 28 C 35 27.449219 34.550781 27 34 27 Z M 40 27 C 39.449219 27 39 27.449219 39 28 C 39 28.550781 39.449219 29 40 29 C 40.550781 29 41 28.550781 41 28 C 41 27.449219 40.550781 27 40 27 Z M 31 30 C 30.449219 30 30 30.449219 30 31 C 30 31.550781 30.449219 32 31 32 C 31.550781 32 32 31.550781 32 31 C 32 30.449219 31.550781 30 31 30 Z M 37 30 C 36.449219 30 36 30.449219 36 31 C 36 31.550781 36.449219 32 37 32 C 37.550781 32 38 31.550781 38 31 C 38 30.449219 37.550781 30 37 30 Z M 43 30 C 42.449219 30 42 30.449219 42 31 C 42 31.550781 42.449219 32 43 32 C 43.550781 32 44 31.550781 44 31 C 44 30.449219 43.550781 30 43 30 Z M 28 33 C 27.449219 33 27 33.449219 27 34 C 27 34.550781 27.449219 35 28 35 C 28.550781 35 29 34.550781 29 34 C 29 33.449219 28.550781 33 28 33 Z M 34 33 C 33.449219 33 33 33.449219 33 34 C 33 34.550781 33.449219 35 34 35 C 34.550781 35 35 34.550781 35 34 C 35 33.449219 34.550781 33 34 33 Z M 40 33 C 39.449219 33 39 33.449219 39 34 C 39 34.550781 39.449219 35 40 35 C 40.550781 35 41 34.550781 41 34 C 41 33.449219 40.550781 33 40 33 Z M 31 36 C 30.449219 36 30 36.449219 30 37 C 30 37.550781 30.449219 38 31 38 C 31.550781 38 32 37.550781 32 37 C 32 36.449219 31.550781 36 31 36 Z M 37 36 C 36.449219 36 36 36.449219 36 37 C 36 37.550781 36.449219 38 37 38 C 37.550781 38 38 37.550781 38 37 C 38 36.449219 37.550781 36 37 36 Z M 28 39 C 27.449219 39 27 39.449219 27 40 C 27 40.550781 27.449219 41 28 41 C 28.550781 41 29 40.550781 29 40 C 29 39.449219 28.550781 39 28 39 Z M 34 39 C 33.449219 39 33 39.449219 33 40 C 33 40.550781 33.449219 41 34 41 C 34.550781 41 35 40.550781 35 40 C 35 39.449219 34.550781 39 34 39 Z M 31 42 C 30.449219 42 30 42.449219 30 43 C 30 43.550781 30.449219 44 31 44 C 31.550781 44 32 43.550781 32 43 C 32 42.449219 31.550781 42 31 42 Z M 31 42 "/>
</g>
</svg>
