<?xml version="1.0" encoding="utf-8"?>
<!-- Generator: Adobe Illustrator 25.1.0, SVG Export Plug-In . SVG Version: 6.00 Build 0)  -->
<svg version="1.1" id="Layer_1" xmlns="http://www.w3.org/2000/svg" xmlns:xlink="http://www.w3.org/1999/xlink" x="0px" y="0px"
	 viewBox="0 0 50 50" style="enable-background:new 0 0 50 50;" xml:space="preserve">
<path d="M14,10 M11,11H4c-0.6,0-1,0.4-1,1v24.5V37h0c0.3,3.9,3.5,7,7.5,7c3.4,0,6.1-2.3,7-5.3c0.1-0.4,0.5-0.7,0.9-0.7h8.1
	c0.4,0,0.8,0.3,0.9,0.7c0.9,3.1,3.7,5.3,7,5.3c3.4,0,6.2-2.2,7.2-5.3c0.1-0.4,0.5-0.7,0.9-0.7H46c0.6,0,1-0.4,1-1v-8l0,0.1
	c0,0,0.3-2.2-1.3-4.3c-1.5-2-4.7-3.7-10.8-3.8c-0.3,0-0.5-0.1-0.7-0.3l-9.5-9.5C24.5,11.1,24.3,11,24,11h-9 M5,13h18.6l8,8H5V13z
	 M5,23h29c6.3,0,8.9,1.7,10.1,3.1c1.1,1.4,0.9,2.7,0.9,2.7l0,0.1V36h-3c-0.3-3.9-3.5-7-7.5-7c-4,0-7.1,3.1-7.4,7h-9.2
	c-0.3-3.9-3.4-7-7.4-7c-2.2,0-4.1,0.9-5.5,2.4V23z M10.5,31c3,0,5.5,2.5,5.5,5.5S13.5,42,10.5,42S5,39.5,5,36.5S7.5,31,10.5,31z
	 M34.5,31c3,0,5.5,2.5,5.5,5.5S37.5,42,34.5,42S29,39.5,29,36.5S31.5,31,34.5,31z"/>
</svg>
