<?xml version="1.0" encoding="UTF-8"?>
<svg xmlns="http://www.w3.org/2000/svg" xmlns:xlink="http://www.w3.org/1999/xlink" viewBox="0 0 50 50" width="50px" height="50px">
<g id="surface9711501">
<path style=" stroke:none;fill-rule:nonzero;fill:rgb(5.098039%,5.098039%,5.098039%);fill-opacity:1;" d="M 15.542969 3.023438 C 13.601562 3.195312 11.851562 4.503906 11.21875 6.46875 L 3.242188 31.214844 C 2.398438 33.828125 3.851562 36.660156 6.464844 37.503906 L 6.46875 37.503906 L 10 38.714844 L 10 42 C 10 44.746094 12.25 47 15 47 L 42 47 C 44.75 47 47 44.746094 47 42 L 47 16 C 47 13.507812 45.148438 11.429688 42.757812 11.0625 L 17.511719 3.242188 C 16.855469 3.03125 16.1875 2.964844 15.542969 3.023438 Z M 15.707031 5.007812 C 16.097656 4.972656 16.5 5.015625 16.894531 5.144531 C 16.898438 5.144531 16.902344 5.148438 16.90625 5.148438 L 35.792969 11 L 15 11 C 13.546875 11 12.246094 11.636719 11.332031 12.632812 L 13.121094 7.078125 C 13.503906 5.890625 14.542969 5.109375 15.707031 5.007812 Z M 15 13 L 42 13 C 42.125 13 42.246094 13.019531 42.371094 13.035156 L 42.65625 13.125 C 42.757812 13.15625 42.871094 13.175781 42.980469 13.171875 C 44.15625 13.578125 45 14.675781 45 16 L 45 42 C 45 43.667969 43.667969 45 42 45 L 15 45 C 13.332031 45 12 43.667969 12 42 L 12 16 C 12 14.328125 13.332031 13 15 13 Z M 41 15 C 39.894531 15 39 15.894531 39 17 C 39 18.101562 39.894531 19 41 19 C 42.105469 19 43 18.101562 43 17 C 43 15.894531 42.105469 15 41 15 Z M 10 16.765625 L 10 36.597656 L 7.097656 35.609375 C 7.09375 35.605469 7.085938 35.601562 7.078125 35.601562 C 5.492188 35.089844 4.632812 33.414062 5.148438 31.828125 Z M 15 17 C 15 17 17.5625 20.496094 18.6875 21.949219 C 17.5625 23.402344 15 26.898438 15 26.898438 C 15 26.898438 18.496094 24.335938 19.949219 23.214844 C 21.402344 24.335938 24.902344 26.898438 24.902344 26.898438 C 24.902344 26.898438 22.335938 23.402344 21.214844 21.949219 C 22.335938 20.496094 24.902344 17 24.902344 17 C 24.902344 17 21.402344 19.5625 19.949219 20.683594 C 18.496094 19.5625 15 17 15 17 Z M 21 29 C 21 29 22.097656 30.9375 22.796875 32.042969 C 22.097656 33.117188 21 35 21 35 C 21 35 22.910156 33.929688 24 33.246094 C 25.089844 33.929688 27 35 27 35 C 27 35 25.902344 33.117188 25.203125 32.042969 C 25.902344 30.9375 27 29 27 29 C 27 29 25.089844 30.125 24 30.839844 C 22.910156 30.125 21 29 21 29 Z M 21 29 "/>
</g>
</svg>
