<?xml version="1.0" encoding="UTF-8"?>
<svg xmlns="http://www.w3.org/2000/svg" xmlns:xlink="http://www.w3.org/1999/xlink" viewBox="0 0 50 50" width="50px" height="50px">
<g id="surface9710107">
<path style=" stroke:none;fill-rule:nonzero;fill:rgb(5.098039%,5.098039%,5.098039%);fill-opacity:1;" d="M 14 2 C 11.25 2 9 4.25 9 7 L 9 30.832031 C 8.980469 30.941406 8.980469 31.050781 9 31.160156 L 9 37 C 9 40.855469 12.144531 44 16 44 L 16 47 C 16 47.550781 16.449219 48 17 48 L 21 48 C 21.550781 48 22 47.550781 22 47 L 22 44 L 28 44 L 28 47 C 28 47.550781 28.449219 48 29 48 L 33 48 C 33.550781 48 34 47.550781 34 47 L 34 44 C 37.855469 44 41 40.855469 41 37 L 41 31.167969 C 41.019531 31.058594 41.019531 30.949219 41 30.839844 L 41 7 C 41 4.25 38.75 2 36 2 Z M 14 4 L 36 4 C 37.667969 4 39 5.332031 39 7 L 39 30 L 11 30 L 11 7 C 11 5.332031 12.332031 4 14 4 Z M 16 8 C 15.449219 8 15 8.449219 15 9 L 15 25 C 15 25.550781 15.449219 26 16 26 L 34 26 C 34.550781 26 35 25.550781 35 25 L 35 9 C 35 8.449219 34.550781 8 34 8 Z M 17 10 L 33 10 L 33 24 L 17 24 Z M 26.371094 12 C 26.371094 12 21 14.445312 21 18.628906 C 21 21.238281 24.210938 22 24.210938 22 C 24.210938 22 23.160156 20.585938 23.160156 18.628906 C 23.160156 16.238281 25.320312 14.824219 25.320312 14.824219 C 24.621094 17.652344 25.847656 18.628906 25.847656 18.628906 C 25.847656 18.628906 25.730469 17.761719 26.253906 17.214844 C 26.605469 18.464844 27.480469 19.011719 27.480469 20.152344 C 27.480469 20.96875 26.546875 22 26.546875 22 C 28.007812 21.511719 29.054688 20.097656 29 18.628906 C 29 16.074219 27.773438 15.476562 27.949219 14.007812 C 27.539062 14.117188 27.1875 14.5 26.898438 14.714844 C 26.371094 14.066406 26.195312 13.085938 26.371094 12 Z M 11 32 L 39 32 L 39 37 C 39 39.773438 36.773438 42 34 42 L 16 42 C 13.226562 42 11 39.773438 11 37 Z M 17.5 33 C 15.578125 33 14 34.578125 14 36.5 C 14 38.421875 15.578125 40 17.5 40 C 19.421875 40 21 38.421875 21 36.5 C 21 34.578125 19.421875 33 17.5 33 Z M 32.5 33 C 30.578125 33 29 34.578125 29 36.5 C 29 38.421875 30.578125 40 32.5 40 C 34.421875 40 36 38.421875 36 36.5 C 36 34.578125 34.421875 33 32.5 33 Z M 17.5 35 C 18.339844 35 19 35.660156 19 36.5 C 19 37.339844 18.339844 38 17.5 38 C 16.660156 38 16 37.339844 16 36.5 C 16 35.660156 16.660156 35 17.5 35 Z M 32.5 35 C 33.339844 35 34 35.660156 34 36.5 C 34 37.339844 33.339844 38 32.5 38 C 31.660156 38 31 37.339844 31 36.5 C 31 35.660156 31.660156 35 32.5 35 Z M 18 44 L 20 44 L 20 46 L 18 46 Z M 30 44 L 32 44 L 32 46 L 30 46 Z M 30 44 "/>
</g>
</svg>
